<?xml version="1.0" encoding="iso-8859-1"?>
<!-- Uploaded to: SVG Repo, www.svgrepo.com, Generator: SVG Repo Mixer Tools -->
<svg version="1.1" id="Layer_1" xmlns="http://www.w3.org/2000/svg" xmlns:xlink="http://www.w3.org/1999/xlink" 
	 viewBox="0 0 512.001 512.001" xml:space="preserve">
<path style="fill:#EDDFD6;" d="M455.062,302.561c1.806-13.025-4.549-26.355-16.867-32.843c-4.769-2.512-9.902-3.72-14.964-3.72
	c-10.879,0-21.452,5.536-27.49,15.415l-49.673,81.406l39.095,2.532"/>
<path style="fill:#F9EADE;" d="M497.015,352.809L341.116,451.33c-15.671,9.896-34.386,13.826-52.705,11.059l-184.127-27.82
	c-9.465-1.426-19.146,0.695-27.149,5.955l-15.54,10.22l-43.528-85.318L0,330.008c13.215-8.147,25.436-17.72,36.435-28.539
	c10.999-10.807,20.787-22.86,29.15-35.944c14.689-22.98,40.161-37.13,67.43-36.626c6.206,0.12,12.424,0.779,18.571,2.013
	l26.922,5.392v0.012l137.376,27.533c12.688,2.552,21.362,13.683,21.362,26.035c0,2.121-0.264,4.277-0.791,6.422
	c-3.439,13.838-16.905,22.728-30.971,20.44l-102.918-16.726c-1.366-0.216-2.708-0.324-4.05-0.324
	c-12.676,0-23.651,9.669-24.837,22.728c-1.186,13,7.836,24.705,20.703,26.886l118.542,20.08c10.531,1.785,21.362-0.06,30.72-5.224
	l120.626-66.699c4.924-2.72,10.256-4.014,15.54-4.014c10.651,0,21.027,5.296,27.137,14.869
	C516.532,323.347,512.075,343.295,497.015,352.809z"/>
<path style="fill:#EDDFD6;" d="M178.508,236.304v0.012c0,0-63.512-0.503-101.253,65.98c-14.258,25.125-36.734,46.391-59.187,63.129
	L0,330.008c13.215-8.147,25.436-17.72,36.435-28.539c10.999-10.807,20.787-22.86,29.15-35.944
	c14.689-22.98,40.161-37.13,67.43-36.626c6.206,0.12,12.424,0.779,18.571,2.013L178.508,236.304z"/>
<path style="fill:#FCD577;" d="M384.417,48.748c-35.023,0-65.376,19.974-80.287,49.155h-32.189l-28.226,20.035l-28.228-20.035
	l-20.889,12.698l-20.89-12.698l-33.43,33.43v0.004v23.021l16.155,25.471H304.13c14.911,29.183,45.264,49.155,80.287,49.155
	c49.77,0,90.119-40.349,90.119-90.119S434.187,48.748,384.417,48.748z M412.029,114.904c13.234,0,23.962,10.728,23.962,23.962
	s-10.728,23.962-23.962,23.962s-23.962-10.728-23.962-23.962S398.795,114.904,412.029,114.904z"/>
<rect x="140.276" y="142.504" style="fill:#EAC36E;" width="167.006" height="11.857"/>
</svg>